<?xml version="1.0" encoding="UTF-8" standalone="no"?><svg xmlns="http://www.w3.org/2000/svg" xmlns:xlink="http://www.w3.org/1999/xlink" contentScriptType="application/ecmascript" contentStyleType="text/css" height="679px" preserveAspectRatio="none" style="width:782px;height:679px;" version="1.1" viewBox="0 0 782 679" width="782px" zoomAndPan="magnify"><defs><filter height="300%" id="f1vrmp6pcbmtrw" width="300%" x="-1" y="-1"><feGaussianBlur result="blurOut" stdDeviation="2.0"/><feColorMatrix in="blurOut" result="blurOut2" type="matrix" values="0 0 0 0 0 0 0 0 0 0 0 0 0 0 0 0 0 0 .4 0"/><feOffset dx="4.0" dy="4.0" in="blurOut2" result="blurOut3"/><feBlend in="SourceGraphic" in2="blurOut3" mode="normal"/></filter></defs><g><!--class suppliers--><rect fill="#FEFECE" filter="url(#f1vrmp6pcbmtrw)" height="78.4141" id="suppliers" style="stroke: #A80036; stroke-width: 1.5;" width="89" x="103" y="375"/><ellipse cx="118" cy="391" fill="#FFAAAA" rx="11" ry="11" style="stroke: #A80036; stroke-width: 1.0;"/><path d="M118.8438,397.75 L116.3906,397.75 L116.3906,387.5 L113.25,387.5 L113.25,385.3594 L121.9844,385.3594 L121.9844,387.5 L118.8438,387.5 L118.8438,397.75 Z "/><text fill="#000000" font-family="sans-serif" font-size="12" lengthAdjust="spacingAndGlyphs" textLength="57" x="132" y="395.1543">suppliers</text><line style="stroke: #A80036; stroke-width: 1.5;" x1="104" x2="191" y1="407" y2="407"/><text fill="#000000" font-family="sans-serif" font-size="11" font-weight="bold" lengthAdjust="spacingAndGlyphs" textLength="12" x="109" y="421.2104">id</text><text fill="#000000" font-family="sans-serif" font-size="11" lengthAdjust="spacingAndGlyphs" textLength="17" x="124" y="421.2104">i64</text><text fill="#000000" font-family="sans-serif" font-size="11" lengthAdjust="spacingAndGlyphs" textLength="51" x="109" y="434.0151">name str</text><text fill="#000000" font-family="sans-serif" font-size="11" lengthAdjust="spacingAndGlyphs" textLength="66" x="109" y="446.8198">address str</text><!--class products--><rect fill="#FEFECE" filter="url(#f1vrmp6pcbmtrw)" height="104.0234" id="products" style="stroke: #A80036; stroke-width: 1.5;" width="134" x="80.5" y="185"/><ellipse cx="116.2" cy="201" fill="#FFAAAA" rx="11" ry="11" style="stroke: #A80036; stroke-width: 1.0;"/><path d="M117.0438,207.75 L114.5906,207.75 L114.5906,197.5 L111.45,197.5 L111.45,195.3594 L120.1844,195.3594 L120.1844,197.5 L117.0438,197.5 L117.0438,207.75 Z "/><text fill="#000000" font-family="sans-serif" font-size="12" lengthAdjust="spacingAndGlyphs" textLength="56" x="134.8" y="205.1543">products</text><line style="stroke: #A80036; stroke-width: 1.5;" x1="81.5" x2="213.5" y1="217" y2="217"/><text fill="#000000" font-family="sans-serif" font-size="11" font-weight="bold" lengthAdjust="spacingAndGlyphs" textLength="12" x="86.5" y="231.2104">id</text><text fill="#000000" font-family="sans-serif" font-size="11" lengthAdjust="spacingAndGlyphs" textLength="17" x="101.5" y="231.2104">i64</text><text fill="#000000" font-family="sans-serif" font-size="11" lengthAdjust="spacingAndGlyphs" textLength="122" x="86.5" y="244.0151">parent_product_id i64</text><text fill="#000000" font-family="sans-serif" font-size="11" lengthAdjust="spacingAndGlyphs" textLength="47" x="86.5" y="256.8198">code i64</text><text fill="#000000" font-family="sans-serif" font-size="11" lengthAdjust="spacingAndGlyphs" textLength="58" x="86.5" y="269.6245">name star</text><text fill="#000000" font-family="sans-serif" font-size="11" lengthAdjust="spacingAndGlyphs" textLength="57" x="86.5" y="282.4292">weight i64</text><!--class prices--><rect fill="#FEFECE" filter="url(#f1vrmp6pcbmtrw)" height="78.4141" id="prices" style="stroke: #A80036; stroke-width: 1.5;" width="99" x="6" y="21"/><ellipse cx="34.05" cy="37" fill="#FFAAAA" rx="11" ry="11" style="stroke: #A80036; stroke-width: 1.0;"/><path d="M34.8938,43.75 L32.4406,43.75 L32.4406,33.5 L29.3,33.5 L29.3,31.3594 L38.0344,31.3594 L38.0344,33.5 L34.8938,33.5 L34.8938,43.75 Z "/><text fill="#000000" font-family="sans-serif" font-size="12" lengthAdjust="spacingAndGlyphs" textLength="38" x="50.95" y="41.1543">prices</text><line style="stroke: #A80036; stroke-width: 1.5;" x1="7" x2="104" y1="53" y2="53"/><text fill="#000000" font-family="sans-serif" font-size="11" font-weight="bold" lengthAdjust="spacingAndGlyphs" textLength="67" x="12" y="67.2104">product_id</text><text fill="#000000" font-family="sans-serif" font-size="11" lengthAdjust="spacingAndGlyphs" textLength="17" x="82" y="67.2104">i64</text><text fill="#000000" font-family="sans-serif" font-size="11" font-weight="bold" lengthAdjust="spacingAndGlyphs" textLength="64" x="12" y="80.0151">date_from</text><text fill="#000000" font-family="sans-serif" font-size="11" lengthAdjust="spacingAndGlyphs" textLength="11" x="79" y="80.0151">dt</text><text fill="#000000" font-family="sans-serif" font-size="11" lengthAdjust="spacingAndGlyphs" textLength="49" x="12" y="92.8198">price f64</text><!--class customers--><rect fill="#FEFECE" filter="url(#f1vrmp6pcbmtrw)" height="104.0234" id="customers" style="stroke: #A80036; stroke-width: 1.5;" width="116" x="408.5" y="545"/><ellipse cx="431.6" cy="561" fill="#FFAAAA" rx="11" ry="11" style="stroke: #A80036; stroke-width: 1.0;"/><path d="M432.4438,567.75 L429.9906,567.75 L429.9906,557.5 L426.85,557.5 L426.85,555.3594 L435.5844,555.3594 L435.5844,557.5 L432.4438,557.5 L432.4438,567.75 Z "/><text fill="#000000" font-family="sans-serif" font-size="12" lengthAdjust="spacingAndGlyphs" textLength="66" x="447.4" y="565.1543">customers</text><line style="stroke: #A80036; stroke-width: 1.5;" x1="409.5" x2="523.5" y1="577" y2="577"/><text fill="#000000" font-family="sans-serif" font-size="11" font-weight="bold" lengthAdjust="spacingAndGlyphs" textLength="12" x="414.5" y="591.2104">id</text><text fill="#000000" font-family="sans-serif" font-size="11" lengthAdjust="spacingAndGlyphs" textLength="17" x="429.5" y="591.2104">i64</text><text fill="#000000" font-family="sans-serif" font-size="11" lengthAdjust="spacingAndGlyphs" textLength="80" x="414.5" y="604.0151">first_name str</text><text fill="#000000" font-family="sans-serif" font-size="11" lengthAdjust="spacingAndGlyphs" textLength="78" x="414.5" y="616.8198">last_name str</text><text fill="#000000" font-family="sans-serif" font-size="11" lengthAdjust="spacingAndGlyphs" textLength="104" x="414.5" y="629.6245">phone_number str</text><text fill="#000000" font-family="sans-serif" font-size="11" lengthAdjust="spacingAndGlyphs" textLength="103" x="414.5" y="642.4292">email_address str</text><!--class orders--><rect fill="#FEFECE" filter="url(#f1vrmp6pcbmtrw)" height="129.6328" id="orders" style="stroke: #A80036; stroke-width: 1.5;" width="206" x="315.5" y="172"/><ellipse cx="393.75" cy="188" fill="#FFAAAA" rx="11" ry="11" style="stroke: #A80036; stroke-width: 1.0;"/><path d="M394.5938,194.75 L392.1406,194.75 L392.1406,184.5 L389,184.5 L389,182.3594 L397.7344,182.3594 L397.7344,184.5 L394.5938,184.5 L394.5938,194.75 Z "/><text fill="#000000" font-family="sans-serif" font-size="12" lengthAdjust="spacingAndGlyphs" textLength="41" x="414.25" y="192.1543">orders</text><line style="stroke: #A80036; stroke-width: 1.5;" x1="316.5" x2="520.5" y1="204" y2="204"/><text fill="#000000" font-family="sans-serif" font-size="11" font-weight="bold" lengthAdjust="spacingAndGlyphs" textLength="12" x="321.5" y="218.2104">id</text><text fill="#000000" font-family="sans-serif" font-size="11" lengthAdjust="spacingAndGlyphs" textLength="17" x="336.5" y="218.2104">i64</text><text fill="#000000" font-family="sans-serif" font-size="11" lengthAdjust="spacingAndGlyphs" textLength="90" x="321.5" y="231.0151">customer_id i64</text><text fill="#000000" font-family="sans-serif" font-size="11" lengthAdjust="spacingAndGlyphs" textLength="194" x="321.5" y="243.8198">customer_payment_method_id i64</text><text fill="#000000" font-family="sans-serif" font-size="11" lengthAdjust="spacingAndGlyphs" textLength="126" x="321.5" y="256.6245">order_status_code i64</text><text fill="#000000" font-family="sans-serif" font-size="11" lengthAdjust="spacingAndGlyphs" textLength="119" x="321.5" y="269.4292">order_placed_date dt</text><text fill="#000000" font-family="sans-serif" font-size="11" lengthAdjust="spacingAndGlyphs" textLength="106" x="321.5" y="282.2339">order_paid_date dt</text><text fill="#000000" font-family="sans-serif" font-size="11" lengthAdjust="spacingAndGlyphs" textLength="117" x="321.5" y="295.0386">total_order_price f64</text><!--class customer_orders_products--><rect fill="#FEFECE" filter="url(#f1vrmp6pcbmtrw)" height="91.2188" id="customer_orders_products" style="stroke: #A80036; stroke-width: 1.5;" width="200" x="140.5" y="14.5"/><ellipse cx="155.5" cy="30.5" fill="#FFAAAA" rx="11" ry="11" style="stroke: #A80036; stroke-width: 1.0;"/><path d="M156.3438,37.25 L153.8906,37.25 L153.8906,27 L150.75,27 L150.75,24.8594 L159.4844,24.8594 L159.4844,27 L156.3438,27 L156.3438,37.25 Z "/><text fill="#000000" font-family="sans-serif" font-size="12" lengthAdjust="spacingAndGlyphs" textLength="168" x="169.5" y="34.6543">customer_orders_products</text><line style="stroke: #A80036; stroke-width: 1.5;" x1="141.5" x2="339.5" y1="46.5" y2="46.5"/><text fill="#000000" font-family="sans-serif" font-size="11" font-weight="bold" lengthAdjust="spacingAndGlyphs" textLength="52" x="146.5" y="60.7104">order_id</text><text fill="#000000" font-family="sans-serif" font-size="11" lengthAdjust="spacingAndGlyphs" textLength="17" x="201.5" y="60.7104">i64</text><text fill="#000000" font-family="sans-serif" font-size="11" font-weight="bold" lengthAdjust="spacingAndGlyphs" textLength="67" x="146.5" y="73.5151">product_id</text><text fill="#000000" font-family="sans-serif" font-size="11" lengthAdjust="spacingAndGlyphs" textLength="17" x="216.5" y="73.5151">i64</text><text fill="#000000" font-family="sans-serif" font-size="11" lengthAdjust="spacingAndGlyphs" textLength="65" x="146.5" y="86.3198">quantity i64</text><text fill="#000000" font-family="sans-serif" font-size="11" lengthAdjust="spacingAndGlyphs" textLength="79" x="146.5" y="99.1245">comments str</text><!--class customer_addresses--><rect fill="#FEFECE" filter="url(#f1vrmp6pcbmtrw)" height="91.2188" id="customer_addresses" style="stroke: #A80036; stroke-width: 1.5;" width="163" x="608" y="368.5"/><ellipse cx="623" cy="384.5" fill="#FFAAAA" rx="11" ry="11" style="stroke: #A80036; stroke-width: 1.0;"/><path d="M623.8438,391.25 L621.3906,391.25 L621.3906,381 L618.25,381 L618.25,378.8594 L626.9844,378.8594 L626.9844,381 L623.8438,381 L623.8438,391.25 Z "/><text fill="#000000" font-family="sans-serif" font-size="12" lengthAdjust="spacingAndGlyphs" textLength="131" x="637" y="388.6543">customer_addresses</text><line style="stroke: #A80036; stroke-width: 1.5;" x1="609" x2="770" y1="400.5" y2="400.5"/><text fill="#000000" font-family="sans-serif" font-size="11" font-weight="bold" lengthAdjust="spacingAndGlyphs" textLength="77" x="614" y="414.7104">customer_id</text><text fill="#000000" font-family="sans-serif" font-size="11" lengthAdjust="spacingAndGlyphs" textLength="17" x="694" y="414.7104">i64</text><text fill="#000000" font-family="sans-serif" font-size="11" font-weight="bold" lengthAdjust="spacingAndGlyphs" textLength="69" x="614" y="427.5151">address_id</text><text fill="#000000" font-family="sans-serif" font-size="11" lengthAdjust="spacingAndGlyphs" textLength="17" x="686" y="427.5151">i64</text><text fill="#000000" font-family="sans-serif" font-size="11" font-weight="bold" lengthAdjust="spacingAndGlyphs" textLength="64" x="614" y="440.3198">date_from</text><text fill="#000000" font-family="sans-serif" font-size="11" lengthAdjust="spacingAndGlyphs" textLength="11" x="681" y="440.3198">dt</text><text fill="#000000" font-family="sans-serif" font-size="11" lengthAdjust="spacingAndGlyphs" textLength="56" x="614" y="453.1245">date_to dt</text><!--class addresses--><rect fill="#FEFECE" filter="url(#f1vrmp6pcbmtrw)" height="142.4375" id="addresses" style="stroke: #A80036; stroke-width: 1.5;" width="98" x="640.5" y="526"/><ellipse cx="655.5" cy="542" fill="#FFAAAA" rx="11" ry="11" style="stroke: #A80036; stroke-width: 1.0;"/><path d="M656.3438,548.75 L653.8906,548.75 L653.8906,538.5 L650.75,538.5 L650.75,536.3594 L659.4844,536.3594 L659.4844,538.5 L656.3438,538.5 L656.3438,548.75 Z "/><text fill="#000000" font-family="sans-serif" font-size="12" lengthAdjust="spacingAndGlyphs" textLength="66" x="669.5" y="546.1543">addresses</text><line style="stroke: #A80036; stroke-width: 1.5;" x1="641.5" x2="737.5" y1="558" y2="558"/><text fill="#000000" font-family="sans-serif" font-size="11" font-weight="bold" lengthAdjust="spacingAndGlyphs" textLength="12" x="646.5" y="572.2104">id</text><text fill="#000000" font-family="sans-serif" font-size="11" lengthAdjust="spacingAndGlyphs" textLength="17" x="661.5" y="572.2104">i64</text><text fill="#000000" font-family="sans-serif" font-size="11" lengthAdjust="spacingAndGlyphs" textLength="52" x="646.5" y="585.0151">line_1 str</text><text fill="#000000" font-family="sans-serif" font-size="11" lengthAdjust="spacingAndGlyphs" textLength="52" x="646.5" y="597.8198">line_2 str</text><text fill="#000000" font-family="sans-serif" font-size="11" lengthAdjust="spacingAndGlyphs" textLength="52" x="646.5" y="610.6245">line_3 str</text><text fill="#000000" font-family="sans-serif" font-size="11" lengthAdjust="spacingAndGlyphs" textLength="38" x="646.5" y="623.4292">city str</text><text fill="#000000" font-family="sans-serif" font-size="11" lengthAdjust="spacingAndGlyphs" textLength="34" x="646.5" y="636.2339">zip str</text><text fill="#000000" font-family="sans-serif" font-size="11" lengthAdjust="spacingAndGlyphs" textLength="67" x="646.5" y="649.0386">province str</text><text fill="#000000" font-family="sans-serif" font-size="11" lengthAdjust="spacingAndGlyphs" textLength="61" x="646.5" y="661.8433">country str</text><!--class customer_payment_methods--><rect fill="#FEFECE" filter="url(#f1vrmp6pcbmtrw)" height="104.0234" id="customer_payment_methods" style="stroke: #A80036; stroke-width: 1.5;" width="212" x="360.5" y="362"/><ellipse cx="375.5" cy="378" fill="#FFAAAA" rx="11" ry="11" style="stroke: #A80036; stroke-width: 1.0;"/><path d="M376.3438,384.75 L373.8906,384.75 L373.8906,374.5 L370.75,374.5 L370.75,372.3594 L379.4844,372.3594 L379.4844,374.5 L376.3438,374.5 L376.3438,384.75 Z "/><text fill="#000000" font-family="sans-serif" font-size="12" lengthAdjust="spacingAndGlyphs" textLength="180" x="389.5" y="382.1543">customer_payment_methods</text><line style="stroke: #A80036; stroke-width: 1.5;" x1="361.5" x2="571.5" y1="394" y2="394"/><text fill="#000000" font-family="sans-serif" font-size="11" font-weight="bold" lengthAdjust="spacingAndGlyphs" textLength="12" x="366.5" y="408.2104">id</text><text fill="#000000" font-family="sans-serif" font-size="11" lengthAdjust="spacingAndGlyphs" textLength="17" x="381.5" y="408.2104">i64</text><text fill="#000000" font-family="sans-serif" font-size="11" lengthAdjust="spacingAndGlyphs" textLength="90" x="366.5" y="421.0151">customer_id i64</text><text fill="#000000" font-family="sans-serif" font-size="11" lengthAdjust="spacingAndGlyphs" textLength="94" x="366.5" y="433.8198">card_number str</text><text fill="#000000" font-family="sans-serif" font-size="11" lengthAdjust="spacingAndGlyphs" textLength="72" x="366.5" y="446.6245">date_from dt</text><text fill="#000000" font-family="sans-serif" font-size="11" lengthAdjust="spacingAndGlyphs" textLength="56" x="366.5" y="459.4292">date_to dt</text><!--class customer_order_delivery--><rect fill="#FEFECE" filter="url(#f1vrmp6pcbmtrw)" height="104.0234" id="customer_order_delivery" style="stroke: #A80036; stroke-width: 1.5;" width="191" x="376" y="8"/><ellipse cx="391" cy="24" fill="#FFAAAA" rx="11" ry="11" style="stroke: #A80036; stroke-width: 1.0;"/><path d="M391.8438,30.75 L389.3906,30.75 L389.3906,20.5 L386.25,20.5 L386.25,18.3594 L394.9844,18.3594 L394.9844,20.5 L391.8438,20.5 L391.8438,30.75 Z "/><text fill="#000000" font-family="sans-serif" font-size="12" lengthAdjust="spacingAndGlyphs" textLength="159" x="405" y="28.1543">customer_orders_delivery</text><line style="stroke: #A80036; stroke-width: 1.5;" x1="377" x2="566" y1="40" y2="40"/><text fill="#000000" font-family="sans-serif" font-size="11" font-weight="bold" lengthAdjust="spacingAndGlyphs" textLength="12" x="382" y="54.2104">id</text><text fill="#000000" font-family="sans-serif" font-size="11" lengthAdjust="spacingAndGlyphs" textLength="17" x="397" y="54.2104">i64</text><text fill="#000000" font-family="sans-serif" font-size="11" lengthAdjust="spacingAndGlyphs" textLength="90" x="382" y="67.0151">customer_id i64</text><text fill="#000000" font-family="sans-serif" font-size="11" lengthAdjust="spacingAndGlyphs" textLength="94" x="382" y="79.8198">card_number str</text><text fill="#000000" font-family="sans-serif" font-size="11" lengthAdjust="spacingAndGlyphs" textLength="72" x="382" y="92.6245">date_from dt</text><text fill="#000000" font-family="sans-serif" font-size="11" lengthAdjust="spacingAndGlyphs" textLength="56" x="382" y="105.4292">date_to dt</text><!--link prices to products--><path d="M75.9178,99.282 C88.9933,124.4382 106.1124,157.3739 120.3306,184.7283 " fill="none" id="prices-products" style="stroke: #A80036; stroke-width: 1.0;"/><!--link products to suppliers--><path d="M147.5,289.1485 C147.5,316.5795 147.5,349.6499 147.5,374.8621 " fill="none" id="products-suppliers" style="stroke: #A80036; stroke-width: 1.0;"/><!--link customer_orders_products to products--><path d="M216.5502,105.5819 C203.7951,129.8577 188.0532,159.818 174.8227,184.9988 " fill="none" id="customer_orders_products-products" style="stroke: #A80036; stroke-width: 1.0;"/><!--link customer_orders_products to orders--><path d="M286.3394,105.5819 C306.632,125.7605 330.8745,149.8668 353.0231,171.8909 " fill="none" id="customer_orders_products-orders" style="stroke: #A80036; stroke-width: 1.0;"/><!--link customer_order_delivery to orders--><path d="M455.8849,112.1485 C450.2971,130.8097 443.9277,152.0809 438.0494,171.7124 " fill="none" id="customer_order_delivery-orders" style="stroke: #A80036; stroke-width: 1.0;"/><!--link orders to customers--><path d="M370.5006,302.0597 C359.4396,320.5238 349.2422,341.2688 343.5,362 C331.1617,406.545 326.486,423.0231 343.5,466 C356.8207,499.6476 383.3241,529.6993 408.3284,552.5052 " fill="none" id="orders-customers" style="stroke: #A80036; stroke-width: 1.0;"/><!--link orders to customer_payment_methods--><path d="M436.1689,302.1542 C441.5152,321.8685 447.3128,343.2473 452.3934,361.982 " fill="none" id="orders-customer_payment_methods" style="stroke: #A80036; stroke-width: 1.0;"/><!--link customer_payment_methods to customers--><path d="M466.5,466.4405 C466.5,491.0493 466.5,520.2987 466.5,544.8685 " fill="none" id="customer_payment_methods-customers" style="stroke: #A80036; stroke-width: 1.0;"/><!--link customer_addresses to addresses--><path d="M689.5,459.7066 C689.5,479.7152 689.5,503.6601 689.5,525.9087 " fill="none" id="customer_addresses-addresses" style="stroke: #A80036; stroke-width: 1.0;"/><!--link customer_addresses to customers--><path d="M633.8029,459.7066 C600.5194,487.02 558.2976,521.6683 524.5971,549.3239 " fill="none" id="customer_addresses-customers" style="stroke: #A80036; stroke-width: 1.0;"/><!--link products to products--><path d="M214.6961,204.0987 C234.3085,205.236 249.5,216.2031 249.5,237 C249.5,257.7969 234.3085,268.764 214.6961,269.9013 " fill="none" id="products-products" style="stroke: #A80036; stroke-width: 1.0;"/><!--
@startuml

hide methods
hide stereotypes


class suppliers as "suppliers" << (T,#FFAAAA) >> {
<b>id</b> i64
name str
address str
}

class products as "products" << (T,#FFAAAA) >> {
<b>id</b> i64
parent_product_id i64
code i64
name star 
weight i64 
}

class prices as "prices" << (T,#FFAAAA) >> {
    <b>product_id</b> i64
    <b>date_from</b> dt
    price f64
}

class customers as "customers" << (T,#FFAAAA) >> {
    <b>id</b> i64
    first_name str
    last_name str
    phone_number str
    email_address str
}

class orders as "orders" << (T,#FFAAAA) >> {
    <b>id</b> i64
    customer_id i64
    customer_payment_method_id i64
    order_status_code i64
    order_placed_date dt
    order_paid_date dt
    total_order_price f64
}

class customer_orders_products as "customer_orders_products" << (T,#FFAAAA) >> {
    <b>order_id</b> i64
    <b>product_id</b> i64
    quantity i64
    comments str
}

class customer_addresses as "customer_addresses" << (T,#FFAAAA) >> {
    <b>customer_id</b> i64
    <b>address_id</b> i64
    <b>date_from</b> dt
    date_to dt
}

class addresses as "addresses" << (T,#FFAAAA) >> {
    <b>id</b> i64
    line_1 str
    line_2 str
    line_3 str
    city str
    zip str
    province str
    country str
}

class customer_payment_methods as "customer_payment_methods" << (T,#FFAAAA) >> {
    <b>id</b> i64
    customer_id i64
    card_number str
    date_from dt
    date_to dt
}

class customer_order_delivery as "customer_orders_delivery" << (T,#FFAAAA) >> {
    <b>id</b> i64
    customer_id i64
    card_number str
    date_from dt
    date_to dt
}


prices - - products
products - - suppliers
customer_orders_products - - products
customer_orders_products - - orders
customer_order_delivery - - orders
orders - - customers
orders - - customer_payment_methods
customer_payment_methods - - customers
customer_addresses - - addresses
customer_addresses  - - customers
products - - products

@enduml

PlantUML version 1.2018.12(Sun Oct 21 06:15:15 EDT 2018)
(GPL source distribution)
Java Runtime: OpenJDK Runtime Environment
JVM: OpenJDK 64-Bit Server VM
Java Version: 1.8.0_192-b26
Operating System: Linux
OS Version: 4.19.2-arch1-1-ARCH
Default Encoding: UTF-8
Language: en
Country: US
--></g></svg>